<svg width="41" height="40" viewBox="0 0 41 40" fill="none" xmlns="http://www.w3.org/2000/svg">
<path fill-rule="evenodd" clip-rule="evenodd" d="M19.9951 7.31707C16.1542 7.31707 12.7275 10.5226 12.7275 14.2857C12.7275 18.0488 16.1542 21.4634 19.9951 21.4634C24.7402 21.4634 27.4132 18.0488 27.4132 14.2857C27.4132 11.2195 24.7402 7.31707 19.9951 7.31707ZM19.9951 8.57142C23.1585 8.57142 25.7258 11.1314 25.7258 14.2857C25.7258 17.44 23.1585 20 19.9951 20C16.8332 20 14.2644 17.44 14.2644 14.2857C14.2644 11.1314 16.8332 8.57142 19.9951 8.57142Z" fill="#FFFFF5"/>
<path d="M19.9951 8.57142C23.1585 8.57142 25.7258 11.1314 25.7258 14.2857C25.7258 17.44 23.1585 20 19.9951 20C16.8332 20 14.2644 17.44 14.2644 14.2857C14.2644 11.1314 16.8332 8.57142 19.9951 8.57142Z" fill="#FFFFF5"/>
<path fill-rule="evenodd" clip-rule="evenodd" d="M20.0575 0C8.98719 0 0 8.96143 0 20C0 31.0386 8.98719 40 20.0575 40C31.1278 40 40.115 31.0386 40.115 20C40.115 8.96143 31.1278 0 20.0575 0ZM32.049 32.28C29.4989 28.3314 25.0504 25.7143 19.9945 25.7143C14.9715 25.7143 10.5488 28.2986 7.99005 32.2057C11.0947 35.2571 15.3569 37.1429 20.0575 37.1429C24.7194 37.1429 28.9501 35.2886 32.049 32.28ZM33.777 31.2195C35.83 28.3967 37.2497 23.75 37.2497 20C37.2497 10.5386 29.5461 2.85714 20.0575 2.85714C10.5689 2.85714 2.86536 10.5386 2.86536 20C2.86536 23.7114 4.84039 27.9246 6.8533 30.7317C9.97797 26.4303 14.2666 23.9024 19.9945 23.9024C25.761 23.9024 30.658 26.8709 33.777 31.2195Z" fill="#FFFFF5"/>
<path d="M32.049 32.28C29.4989 28.3314 25.0504 25.7143 19.9945 25.7143C14.9715 25.7143 10.5488 28.2986 7.99005 32.2057C11.0947 35.2571 15.3569 37.1429 20.0575 37.1429C24.7194 37.1429 28.9501 35.2886 32.049 32.28Z" fill="#FFFFF5"/>
</svg>
