<svg width="40" height="40" viewBox="0 0 40 40" fill="none" xmlns="http://www.w3.org/2000/svg">
<path fill-rule="evenodd" clip-rule="evenodd" d="M20 0C8.96143 0 0 8.96143 0 20C0 31.0386 8.96143 40 20 40C31.0386 40 40 31.0386 40 20C40 8.96143 31.0386 0 20 0ZM31.9571 32.28C29.4143 28.3314 24.9786 25.7143 19.9371 25.7143C14.9286 25.7143 10.5186 28.2986 7.96714 32.2057C11.0629 35.2571 15.3129 37.1429 20 37.1429C24.6486 37.1429 28.8671 35.2886 31.9571 32.28ZM33.6801 31.2195C35.7273 28.3967 37.1429 23.75 37.1429 20C37.1429 10.5386 29.4614 2.85714 20 2.85714C10.5386 2.85714 2.85714 10.5386 2.85714 20C2.85714 23.7114 4.82651 27.9246 6.83365 30.7317C9.94937 26.4303 14.2257 23.9024 19.9371 23.9024C25.6871 23.9024 30.5701 26.8709 33.6801 31.2195Z" fill="#FFFFF5"/>
<path d="M31.9571 32.28C29.4143 28.3314 24.9786 25.7143 19.9371 25.7143C14.9286 25.7143 10.5186 28.2986 7.96714 32.2057C11.0629 35.2571 15.3129 37.1429 20 37.1429C24.6486 37.1429 28.8671 35.2886 31.9571 32.28Z" fill="#FFFFF5"/>
</svg>
