<svg width="75" height="99" viewBox="0 0 75 99" fill="none" xmlns="http://www.w3.org/2000/svg">
<path d="M21.0951 86.2541C21.0951 86.1446 20.9896 86.0351 20.8842 86.1446C19.0911 87.2397 17.298 88.3348 15.5049 89.4298C14.9775 89.7584 14.4501 89.8679 13.8173 89.8679C11.2859 89.7584 8.54352 89.3203 6.22305 88.4443C4.11354 87.6777 0 84.8305 0 81.9833C0 62.1625 0 42.3417 0 22.6304C0 22.1924 0.210951 21.7544 0.632853 21.5353L36.9164 0.0719303C37.1274 -0.0375769 37.3383 -0.037577 37.4438 0.181437C41.1354 4.89025 46.0928 6.75187 52.1049 5.76631C52.6323 5.6568 53.0542 5.87581 53.3706 6.42335C53.4761 6.53286 53.4761 6.75187 53.4761 6.86138V11.4607C53.4761 11.5702 53.687 11.6797 53.7925 11.6797L58.0115 9.16103C58.2225 9.05152 58.4334 9.05152 58.5389 9.27054C62.2305 13.9794 67.0824 15.841 73.2 14.9649C74.9931 14.7459 74.6767 16.8265 74.6767 17.9216C74.6767 36.9759 74.7821 56.1396 74.6767 75.3034C74.6767 75.5224 74.5712 75.7414 74.3602 75.9604C61.8086 83.5164 49.1516 91.182 36.4945 98.738C35.6507 99.176 34.1741 98.957 33.1193 98.8475C28.5839 98.5189 24.2594 96.9858 21.6225 92.8246C21.2006 92.277 21.0951 91.62 21.0951 90.8534C21.0951 89.3203 21.0951 87.7872 21.0951 86.2541ZM36.389 3.35715L3.48069 22.7399C3.26974 22.8494 3.26974 22.9589 3.37522 23.178C6.11758 25.9156 9.07089 28.3248 13.1844 27.8868C13.5009 27.8868 13.8173 27.7773 14.1337 27.5582C24.6813 21.4258 35.5452 15.1839 46.6202 8.83251C46.9366 8.61349 46.9366 8.50399 46.5147 8.39448C42.7176 7.73744 39.4478 6.09483 36.811 3.35715C36.7055 3.24764 36.4945 3.24764 36.389 3.35715ZM26.8963 23.178C22.7827 25.5871 18.8801 27.7773 15.3994 29.8579C15.1885 29.9674 15.1885 30.0769 15.1885 30.2959V86.3636C15.1885 86.4731 15.2939 86.5827 15.3994 86.4731L20.9896 83.0784C21.0951 82.9689 21.2006 82.8594 21.2006 82.6404C21.2006 65.7763 21.2006 48.8027 21.2006 31.5005C21.2006 31.172 21.3061 30.8435 21.6225 30.5149C21.9389 30.1864 22.7827 29.6389 24.1539 28.8723C33.1193 23.616 42.0847 18.3596 51.0501 13.1033C51.1556 12.3367 51.1556 11.0227 51.0501 9.27054C51.0501 9.27054 51.0501 9.16103 50.9447 9.27054C42.8231 13.9794 34.8069 18.5787 26.8963 23.178ZM57.4842 12.4462L24.5758 31.829C24.4703 31.9385 24.4703 32.048 24.5758 32.048C27.1072 34.7857 29.7441 36.7569 33.6467 36.9759C34.2795 36.9759 34.9124 36.8664 35.4398 36.5378C45.9873 30.4054 56.8513 24.1635 67.8207 17.9216C68.1372 17.7026 68.1372 17.5931 67.7153 17.5931C64.0236 17.0456 60.7539 15.4029 58.117 12.6653C57.9061 12.3367 57.6951 12.3367 57.4842 12.4462ZM36.2836 95.3432C36.2836 95.4527 36.389 95.5622 36.4945 95.4527L72.1452 74.0988C72.2507 74.0988 72.2507 73.9893 72.2507 73.9893V18.6882C72.2507 18.5787 72.1452 18.4691 72.0398 18.5787L36.389 38.947C36.2836 38.947 36.2836 39.0565 36.2836 39.0565V95.3432ZM12.6571 30.953L12.7625 30.8435C12.7625 30.734 12.6571 30.6244 12.5516 30.6244C8.75447 30.5149 5.48473 28.9818 2.74236 26.0251C2.53141 25.8061 2.42594 25.8061 2.42594 26.1347V81.8738C2.42594 81.9833 2.42594 82.0929 2.53141 82.2024C4.85187 85.7066 8.33257 86.5827 12.1297 87.0207C12.4461 87.0207 12.5516 86.9112 12.5516 86.6922L12.6571 30.953C12.5516 30.953 12.5516 30.953 12.6571 30.953ZM23.9429 91.62C26.1579 94.7957 29.955 95.7813 33.5412 96.1098C33.6467 96.1098 33.7522 96.0003 33.7522 96.0003V39.9326C33.7522 39.7135 33.6467 39.7135 33.5412 39.7135C29.955 39.604 26.7908 38.1804 24.0484 35.2238C23.8375 35.0047 23.732 35.0047 23.732 35.3333V90.6344C23.6265 90.9629 23.732 91.2915 23.9429 91.62Z" fill="#550B65"/>
<path d="M42.8233 44.6414L65.0786 31.61C66.2389 30.953 67.7155 31.829 67.7155 33.2526V43.2178C67.7155 43.8748 67.3991 44.5318 66.7662 44.8604L44.5109 57.8917C43.3507 58.5488 41.874 57.6727 41.874 56.2491V46.284C41.874 45.6269 42.1905 44.9699 42.8233 44.6414ZM43.5616 46.065C43.4562 46.065 43.4562 46.1745 43.4562 46.284V56.2491C43.4562 56.4681 43.6671 56.5776 43.8781 56.4681L66.0279 43.4368C66.1334 43.4368 66.1334 43.3273 66.1334 43.2178V33.2526C66.1334 33.0336 65.9224 32.9241 65.7115 33.0336L43.5616 46.065Z" fill="#550B65"/>
</svg>
