<svg width="18" height="18" viewBox="0 0 18 18" fill="none" xmlns="http://www.w3.org/2000/svg">
<path fill-rule="evenodd" clip-rule="evenodd" d="M9.00409 0C4.04399 0 0 4.03826 0 8.99755C0 13.9568 4.04481 18 9.00409 18C13.9634 18 18 13.9568 18 8.99755C18 4.03826 13.9634 0 9.00409 0ZM9.00409 1.63592C9.97121 1.6343 10.9291 1.82362 11.8229 2.19303C12.7167 2.56243 13.5288 3.10465 14.2126 3.78858C14.8964 4.47252 15.4384 5.28471 15.8076 6.17858C16.1768 7.07246 16.3659 8.03043 16.3641 8.99755C16.366 9.96493 16.177 10.9232 15.8079 11.8174C15.4388 12.7116 14.8968 13.5241 14.2131 14.2085C13.5294 14.8928 12.7173 15.4355 11.8234 15.8054C10.9296 16.1753 9.97147 16.3652 9.00409 16.3641C8.03629 16.3653 7.07777 16.1755 6.18339 15.8058C5.28901 15.436 4.47636 14.8935 3.79194 14.2092C3.10753 13.525 2.56481 12.7124 2.19484 11.8181C1.82488 10.9238 1.63495 9.96534 1.63592 8.99755C1.63592 4.92248 4.92902 1.63592 9.00409 1.63592ZM8.991 3.26038C8.88289 3.26144 8.77605 3.28393 8.67668 3.32653C8.57731 3.36914 8.48737 3.43103 8.41207 3.50861C8.33676 3.5862 8.27759 3.67795 8.23796 3.77855C8.19834 3.87914 8.17906 3.9866 8.18122 4.0947V8.99755C8.18167 9.10518 8.20337 9.21167 8.24505 9.31091C8.28674 9.41014 8.34761 9.50017 8.42416 9.57584L11.696 12.8493C11.7717 12.9272 11.8621 12.9892 11.962 13.0318C12.0619 13.0743 12.1693 13.0966 12.2779 13.0972C12.3865 13.0978 12.4941 13.0768 12.5945 13.0354C12.6949 12.994 12.786 12.933 12.8626 12.856C12.9392 12.779 12.9997 12.6875 13.0405 12.5869C13.0813 12.4863 13.1017 12.3785 13.1005 12.2699C13.0993 12.1614 13.0764 12.0541 13.0333 11.9544C12.9902 11.8548 12.9276 11.7647 12.8493 11.6894L9.81878 8.65891V4.0947C9.82098 3.98509 9.80112 3.87615 9.76038 3.77436C9.71964 3.67257 9.65886 3.58001 9.58164 3.50218C9.50442 3.42435 9.41234 3.36284 9.31088 3.3213C9.20941 3.27976 9.10063 3.25905 8.991 3.26038Z" fill="#FFFFF5"/>
</svg>
