<svg width="33" height="41" viewBox="0 0 33 41" fill="none" xmlns="http://www.w3.org/2000/svg">
<path d="M25.0022 10.0258V8.35483C25.0022 3.74046 21.0045 0 16.0728 0C11.1411 0 7.14347 3.74046 7.14347 8.35483V10.0258H0V35.0903C0 37.8599 2.39753 40.1032 5.3576 40.1032H26.788C29.7481 40.1032 32.1456 37.8599 32.1456 35.0903V10.0258H25.0022ZM10.3696 8.35483C10.3696 5.58645 13.1141 2.5873 16.0728 2.5873C19.0316 2.5873 21.7761 5.64036 21.7761 8.40873V10.0258H10.3696V8.35483ZM28.5739 35.0903C28.5739 36.0135 27.7747 36.7612 26.788 36.7612H5.3576C4.37091 36.7612 3.57174 36.0135 3.57174 35.0903V12.9365H28.5739V35.0903Z" fill="#FFFFF5"/>
<path d="M28.5739 35.0903C28.5739 36.0135 27.7747 36.7612 26.788 36.7612H5.3576C4.37091 36.7612 3.57174 36.0135 3.57174 35.0903V12.9365H28.5739V35.0903Z" fill="#FFFFF5"/>
</svg>
