<svg width="121" height="77" viewBox="0 0 121 77" fill="none" xmlns="http://www.w3.org/2000/svg">
<path d="M13.4142 62.5993C6.06039 62.5993 2.5 58.4364 2.5 53.3013V23.4041C2.5 13.5498 2.5 8.62263 6.884 5.56132C11.268 2.5 18.3241 2.5 32.436 2.5H48.6514C62.7633 2.5 69.8194 2.5 74.2034 5.56132C78.5874 8.62263 78.5874 13.5498 78.5874 23.4041V62.5993H36.178" stroke="#550B65" stroke-width="5"/>
<path d="M77.8552 24.1003H86.8006C93.2525 24.1003 96.4785 24.1003 99.3507 25.0092C102.223 25.9181 104.424 27.6355 108.827 31.0704L112.172 33.6812C114.415 35.4299 115.534 36.3043 116.354 37.2996C117.207 38.3351 117.819 39.466 118.166 40.6468C118.5 41.7817 118.5 42.9778 118.5 45.37V53.5131C118.5 58.4767 116.684 62.5004 109.869 62.5004M63.2607 62.5004H85.5447" stroke="#550B65" stroke-width="5"/>
<path d="M24.3292 74.5C30.8736 74.5 36.1788 69.4382 36.1788 63.1942C36.1788 56.9502 30.8736 51.8884 24.3292 51.8884C17.7848 51.8884 12.4795 56.9502 12.4795 63.1942C12.4795 69.4382 17.7848 74.5 24.3292 74.5Z" stroke="#550B65" stroke-width="5"/>
<path d="M97.9224 74.5C104.467 74.5 109.772 69.4382 109.772 63.1942C109.772 56.9502 104.467 51.8884 97.9224 51.8884C91.378 51.8884 86.0728 56.9502 86.0728 63.1942C86.0728 69.4382 91.378 74.5 97.9224 74.5Z" stroke="#550B65" stroke-width="5"/>
</svg>
