<svg width="25" height="25" viewBox="0 0 25 25" fill="none" xmlns="http://www.w3.org/2000/svg">
<path d="M12.5005 1.17414e-08C10.5832 -8.18461e-05 8.69144 0.427855 6.97175 1.25071C5.25206 2.07356 3.7505 3.26926 2.58324 4.74532C1.41597 6.22138 0.614286 7.93822 0.240205 9.76302C-0.133876 11.5878 -0.0703264 13.4717 0.425938 15.2688C0.922203 17.066 1.83788 18.7283 3.10213 20.1271C4.36638 21.5259 5.94531 22.6238 7.71677 23.3358C9.48823 24.0477 11.4047 24.3547 13.318 24.2329C15.2313 24.1112 17.0901 23.5639 18.7505 22.6336C18.8999 22.5578 19.032 22.4534 19.1387 22.3268C19.2454 22.2001 19.3247 22.0539 19.3716 21.8968C19.4186 21.7396 19.4324 21.5749 19.412 21.4125C19.3917 21.2502 19.3377 21.0934 19.2534 20.9518C19.169 20.8102 19.056 20.6866 18.9211 20.5884C18.7862 20.4903 18.6323 20.4196 18.4685 20.3807C18.3048 20.3418 18.1346 20.3354 17.9683 20.3619C17.8019 20.3885 17.6428 20.4474 17.5005 20.5352C15.5942 21.6032 13.378 22.031 11.1956 21.7522C9.01314 21.4735 6.98648 20.5038 5.42988 18.9935C3.87328 17.4832 2.87372 15.5167 2.58621 13.399C2.29871 11.2813 2.73933 9.13075 3.83973 7.2808C4.94014 5.43086 6.63885 3.98492 8.67242 3.16723C10.706 2.34955 12.9608 2.2058 15.0871 2.75829C17.2134 3.31078 19.0925 4.52863 20.4329 6.22297C21.7733 7.91731 22.5001 9.99347 22.5005 12.1295V13.0392C22.5005 13.6021 22.2701 14.142 21.8598 14.5401C21.4496 14.9382 20.8932 15.1618 20.313 15.1618C19.7329 15.1618 19.1765 14.9382 18.7663 14.5401C18.356 14.142 18.1255 13.6021 18.1255 13.0392V7.88415C18.1255 7.56246 17.9939 7.25394 17.7594 7.02647C17.525 6.799 17.2071 6.67121 16.8755 6.67121C16.5849 6.66493 16.301 6.75718 16.0729 6.93207C15.8447 7.10697 15.6865 7.35357 15.6255 7.62943C14.7067 7.01275 13.6177 6.67884 12.5005 6.67121C11.5595 6.66028 10.6307 6.87865 9.79914 7.3063C8.9676 7.73395 8.25993 8.35721 7.74093 9.11901C7.22194 9.88081 6.90822 10.7568 6.8285 11.6667C6.74878 12.5767 6.90561 13.4914 7.28463 14.3273C7.66366 15.1632 8.25275 15.8934 8.99796 16.4512C9.74317 17.0089 10.6207 17.3763 11.5501 17.5196C12.4796 17.663 13.4312 17.5778 14.3179 17.2719C15.2046 16.9659 15.9981 16.4489 16.6255 15.7683C17.2195 16.5146 18.0383 17.0628 18.9682 17.3367C19.8981 17.6105 20.8928 17.5963 21.814 17.2961C22.7353 16.9959 23.5372 16.4246 24.1083 15.6617C24.6794 14.8988 24.9912 13.9821 25.0005 13.0392V12.1295C25.0005 10.5366 24.6772 8.95933 24.049 7.48772C23.4209 6.0161 22.5001 4.67896 21.3394 3.55264C20.1787 2.42631 18.8007 1.53286 17.2841 0.9233C15.7675 0.313738 14.1421 1.17414e-08 12.5005 1.17414e-08ZM12.5005 15.1618C11.8825 15.1618 11.2783 14.984 10.7644 14.6508C10.2505 14.3176 9.84995 13.844 9.61343 13.2899C9.3769 12.7358 9.31502 12.1261 9.43559 11.5379C9.55617 10.9497 9.8538 10.4093 10.2908 9.98526C10.7279 9.56117 11.2847 9.27237 11.8909 9.15536C12.4971 9.03836 13.1254 9.09841 13.6964 9.32792C14.2675 9.55744 14.7555 9.9461 15.0989 10.4448C15.4423 10.9434 15.6255 11.5297 15.6255 12.1295C15.6255 12.9337 15.2963 13.705 14.7103 14.2737C14.1242 14.8423 13.3293 15.1618 12.5005 15.1618Z" fill="#FFFFF5"/>
</svg>
