<svg width="40" height="37" viewBox="0 0 40 37" fill="none" xmlns="http://www.w3.org/2000/svg">
<path d="M29 0C25.5 0 22.2002 1.61316 20 4.23448C17.7997 1.61316 14.5 0 11 0C4.79981 0 0 4.839 0 11.0899C0 18.7516 6.79981 24.9021 17.0996 34.3781L20 37L22.9004 34.3781C33.2001 24.902 40 18.7515 40 11.0899C40 4.839 35.2002 0 29 0ZM21.2342 31.7253L20.8286 32.0985L20 32.8474L19.1715 32.0986L18.7663 31.7258C13.9185 27.2663 9.73164 23.4148 6.96385 19.9711C4.27567 16.6264 3.07692 13.8873 3.07692 11.0899C3.07692 8.88675 3.88673 6.85695 5.35721 5.37454C6.82279 3.89704 8.82673 3.08333 11 3.08333C13.5129 3.08333 15.9971 4.25567 17.6452 6.21918L20 9.02463L22.3547 6.21918C24.0029 4.25567 26.487 3.08333 29 3.08333C31.1734 3.08333 33.1772 3.89704 34.6429 5.37444C36.1133 6.85695 36.9231 8.88665 36.9231 11.0899C36.9231 13.8873 35.7243 16.6263 33.0363 19.9709C30.2689 23.4143 26.0829 27.265 21.2357 31.7239L21.2342 31.7253Z" fill="#FFFFF5"/>
<path d="M21.2342 31.7253L20.8286 32.0985L20 32.8474L19.1715 32.0986L18.7663 31.7258C13.9185 27.2663 9.73164 23.4148 6.96385 19.9711C4.27567 16.6264 3.07692 13.8873 3.07692 11.0899C3.07692 8.88675 3.88673 6.85695 5.35721 5.37454C6.82279 3.89704 8.82673 3.08333 11 3.08333C13.5129 3.08333 15.9971 4.25567 17.6452 6.21918L20 9.02463L22.3547 6.21918C24.0029 4.25567 26.487 3.08333 29 3.08333C31.1734 3.08333 33.1772 3.89704 34.6429 5.37444C36.1133 6.85695 36.9231 8.88665 36.9231 11.0899C36.9231 13.8873 35.7243 16.6263 33.0363 19.9709C30.2689 23.4143 26.0829 27.265 21.2357 31.7239L21.2342 31.7253Z" fill="#FFFFF5"/>
</svg>
