<svg width="78" height="78" viewBox="0 0 78 78" fill="none" xmlns="http://www.w3.org/2000/svg">
<path d="M56.55 0C49.725 0 43.2904 3.40072 39 8.92673C34.7094 3.40072 28.275 0 21.45 0C9.35962 0 0 10.2011 0 23.3787C0 39.5304 13.2596 52.4962 33.3442 72.4728L39 78L44.6558 72.4728C64.7402 52.496 78 39.5302 78 23.3787C78 10.2011 68.6404 0 56.55 0ZM41.4067 66.8803L40.6157 67.667L39 69.2459L37.3845 67.6672L36.5944 66.8813C27.141 57.4803 18.9767 49.361 13.5795 42.1013C8.33756 35.0502 6 29.276 6 23.3787C6 18.7342 7.57912 14.4552 10.4466 11.3301C13.3044 8.21539 17.2121 6.5 21.45 6.5C26.3501 6.5 31.1944 8.97142 34.4081 13.1107L39 19.0249L43.5917 13.1107C46.8056 8.97142 51.6497 6.5 56.55 6.5C60.7881 6.5 64.6956 8.21539 67.5536 11.3299C70.4209 14.4552 72 18.734 72 23.3787C72 29.276 69.6624 35.05 64.4209 42.1009C59.0244 49.3599 50.8616 57.4776 41.4096 66.8775L41.4067 66.8803Z" fill="#550B65"/>
</svg>
