<svg width="64" height="79" viewBox="0 0 64 79" fill="none" xmlns="http://www.w3.org/2000/svg">
<path d="M54.9444 36.3501H9.05556C5.43502 36.3501 2.5 39.6184 2.5 43.6501V69.2001C2.5 73.2318 5.43502 76.5001 9.05556 76.5001H54.9444C58.565 76.5001 61.5 73.2318 61.5 69.2001V43.6501C61.5 39.6184 58.565 36.3501 54.9444 36.3501Z" stroke="#550B65" stroke-width="5" stroke-linecap="round" stroke-linejoin="round"/>
<path d="M15.6113 35.35V20.75C15.6113 15.9098 17.338 11.2678 20.4115 7.8453C23.485 4.42276 27.6536 2.5 32.0002 2.5C36.3468 2.5 40.5154 4.42276 43.5889 7.8453C46.6624 11.2678 48.3891 15.9098 48.3891 20.75V35.35" stroke="#550B65" stroke-width="5" stroke-linecap="round" stroke-linejoin="round"/>
</svg>
