<svg width="36" height="40" viewBox="0 0 36 40" fill="none" xmlns="http://www.w3.org/2000/svg">
<path d="M29.5166 39.7846H6.23377C4.58047 39.7846 2.99489 39.0535 1.82583 37.7521C0.65677 36.4507 0 34.6856 0 32.8452V6.92644C0.00310389 5.08824 0.661244 3.3265 1.82997 2.02791C2.99869 0.729328 4.5825 -3.24743e-06 6.23377 0H29.5166C30.3337 0 31.1428 0.179158 31.8977 0.527244C32.6526 0.87533 33.3385 1.38553 33.9163 2.02871C34.4941 2.67189 34.9524 3.43545 35.2651 4.27581C35.5778 5.11616 35.7387 6.01685 35.7387 6.92644V32.8452C35.7387 34.6834 35.0835 36.4465 33.917 37.7475C32.7505 39.0485 31.1679 39.7812 29.5166 39.7846ZM6.23377 3.26104C5.80038 3.25932 5.37096 3.35286 4.97013 3.5363C4.56929 3.71973 4.20493 3.98945 3.89793 4.32999C3.59094 4.67052 3.34736 5.07517 3.18115 5.52073C3.01495 5.96629 2.9294 6.44399 2.9294 6.92644V32.8452C2.9294 33.8207 3.27754 34.7564 3.89723 35.4462C4.51692 36.1361 5.35739 36.5236 6.23377 36.5236H29.5166C29.95 36.5236 30.3792 36.4284 30.7794 36.2434C31.1796 36.0583 31.5431 35.7872 31.8491 35.4454C32.155 35.1037 32.3972 34.6981 32.562 34.2519C32.7268 33.8056 32.8108 33.3276 32.8093 32.8452V6.92644C32.8093 5.95432 32.4624 5.02201 31.8449 4.33461C31.2274 3.64721 30.3899 3.26104 29.5166 3.26104H6.23377Z" fill="#FFFFF5"/>
<path d="M13.206 21.5228C12.8015 21.5213 12.402 21.4235 12.0342 21.2359C11.5199 20.9758 11.0845 20.5551 10.7808 20.0248C10.4771 19.4946 10.3183 18.8776 10.3235 18.2488V1.63052C10.3235 1.19808 10.4778 0.78335 10.7525 0.477568C11.0272 0.171787 11.3997 0 11.7882 0C12.1766 0 12.5492 0.171787 12.8239 0.477568C13.0986 0.78335 13.1123 2.15857 13.1123 2.59101L15.0808 2.59101H16.5C17.0175 2.07671 17.1759 2.59101 17.8696 2.59101C18.5633 2.59101 19.1097 2.07671 19.6272 2.59101H20.6629L22.3574 2.59101C22.3574 2.15857 22.6524 0.78335 22.9271 0.477568C23.2017 0.171787 23.5743 0 23.9628 0C24.3512 0 24.7238 0.171787 24.9985 0.477568C25.2731 0.78335 25.4275 1.19808 25.4275 1.63052V18.2488C25.4327 18.8776 25.2738 19.4946 24.9701 20.0248C24.6664 20.5551 24.231 20.9758 23.7167 21.2359C23.2177 21.4913 22.6626 21.5793 22.1194 21.4889C21.5762 21.3986 21.0685 21.1338 20.6584 20.7271L17.8696 18.0401L15.0808 20.7402C14.5627 21.2472 13.8958 21.5256 13.206 21.5228ZM19.6272 31.7234H9.0814C8.69294 31.7234 8.32038 31.5516 8.0457 31.2458C7.77102 30.94 7.6167 30.5253 7.6167 30.0928C7.6167 29.6604 7.77102 29.2457 8.0457 28.9399C8.32038 28.6341 8.69294 28.4623 9.0814 28.4623H19.6272C20.0157 28.4623 20.3883 28.6341 20.6629 28.9399C20.9376 29.2457 21.0919 29.6604 21.0919 30.0928C21.0919 30.5253 20.9376 30.94 20.6629 31.2458C20.3883 31.5516 20.0157 31.7234 19.6272 31.7234Z" fill="#FFFFF5"/>
</svg>
