<svg width="21" height="21" viewBox="0 0 21 21" fill="none" xmlns="http://www.w3.org/2000/svg">
<path d="M16.6876 20.2053H3.52433C2.58962 20.2053 1.69319 19.834 1.03225 19.173C0.371313 18.5121 0 17.6157 0 16.681V3.51771C0.00175482 2.58415 0.373842 1.68942 1.03459 1.02991C1.69534 0.370402 2.59077 -1.64926e-06 3.52433 0H16.6876C17.1495 0 17.607 0.0909882 18.0338 0.26777C18.4605 0.444551 18.8483 0.703664 19.175 1.03031C19.5016 1.35696 19.7607 1.74475 19.9375 2.17154C20.1143 2.59833 20.2053 3.05576 20.2053 3.51771V16.681C20.2053 17.6145 19.8349 18.51 19.1754 19.1707C18.5159 19.8315 17.6212 20.2035 16.6876 20.2053ZM3.52433 1.65617C3.27932 1.6553 3.03654 1.70281 2.80992 1.79597C2.5833 1.88913 2.37731 2.02611 2.20374 2.19906C2.03018 2.372 1.89247 2.57751 1.7985 2.8038C1.70454 3.03008 1.65617 3.27269 1.65617 3.51771V16.681C1.65617 17.1764 1.853 17.6516 2.20334 18.002C2.55369 18.3523 3.02887 18.5491 3.52433 18.5491H16.6876C16.9326 18.5491 17.1752 18.5008 17.4015 18.4068C17.6278 18.3128 17.8333 18.1751 18.0062 18.0016C18.1792 17.828 18.3162 17.622 18.4093 17.3954C18.5025 17.1688 18.55 16.926 18.5491 16.681V3.51771C18.5491 3.024 18.353 2.55051 18.0039 2.2014C17.6548 1.8523 17.1813 1.65617 16.6876 1.65617H3.52433Z" fill="#FFFFF5"/>
<path d="M7.46613 10.9307C7.23744 10.93 7.01156 10.8803 6.80366 10.785C6.51289 10.6529 6.26671 10.4392 6.09502 10.1699C5.92333 9.90064 5.83351 9.5873 5.83646 9.26794V0.828086C5.83646 0.608464 5.9237 0.397837 6.079 0.242541C6.23429 0.0872447 6.44492 0 6.66454 0C6.88416 0 7.09479 0.0872447 7.25009 0.242541C7.40538 0.397837 7.41313 1.09627 7.41313 1.31589L8.52608 1.31589H9.32843C9.62101 1.05469 9.71055 1.31589 10.1028 1.31589C10.495 1.31589 10.8039 1.05469 11.0965 1.31589H11.682L12.64 1.31589C12.64 1.09627 12.8068 0.397837 12.962 0.242541C13.1173 0.0872447 13.328 0 13.5476 0C13.7672 0 13.9778 0.0872447 14.1331 0.242541C14.2884 0.397837 14.3757 0.608464 14.3757 0.828086V9.26794C14.3786 9.5873 14.2888 9.90064 14.1171 10.1699C13.9454 10.4392 13.6992 10.6529 13.4085 10.785C13.1264 10.9147 12.8125 10.9594 12.5054 10.9135C12.1983 10.8676 11.9113 10.7332 11.6794 10.5266L10.1028 9.16195L8.52608 10.5333C8.23317 10.7908 7.85613 10.9322 7.46613 10.9307ZM11.0965 16.1112H5.13424C4.91462 16.1112 4.70399 16.024 4.54869 15.8687C4.3934 15.7134 4.30615 15.5028 4.30615 15.2832C4.30615 15.0635 4.3934 14.8529 4.54869 14.6976C4.70399 14.5423 4.91462 14.4551 5.13424 14.4551H11.0965C11.3161 14.4551 11.5267 14.5423 11.682 14.6976C11.8373 14.8529 11.9245 15.0635 11.9245 15.2832C11.9245 15.5028 11.8373 15.7134 11.682 15.8687C11.5267 16.024 11.3161 16.1112 11.0965 16.1112Z" fill="#FFFFF5"/>
</svg>
