<svg width="36" height="35" viewBox="0 0 36 35" fill="none" xmlns="http://www.w3.org/2000/svg">
<path d="M24.7129 22.3568C26.7195 19.9927 27.9868 16.9604 27.9868 13.6197C27.9868 6.11601 21.703 0 13.9934 0C6.28383 0 0 6.11601 0 13.6197C0 21.1234 6.28383 27.2394 13.9934 27.2394C17.3729 27.2394 20.5413 26.0573 22.9703 24.0529L33.8482 34.6402C34.1122 34.8972 34.429 35 34.7459 35C35.0627 35 35.3795 34.8972 35.6436 34.6402C36.1188 34.1777 36.1188 33.3554 35.6436 32.8928L24.7129 22.3568ZM13.9406 24.7724C7.60396 24.7724 2.48185 19.7871 2.48185 13.6197C2.48185 7.45228 7.60396 2.46696 13.9406 2.46696C20.2772 2.46696 25.3993 7.45228 25.3993 13.6197C25.3993 19.7871 20.2772 24.7724 13.9406 24.7724Z" fill="#550B65"/>
</svg>
