<svg width="26" height="25" viewBox="0 0 26 25" fill="none" xmlns="http://www.w3.org/2000/svg">
<path d="M21.9651 13.381C21.6883 13.381 21.399 13.2956 21.1222 13.2345C20.5616 13.1147 20.0108 12.9555 19.474 12.7584C18.8903 12.5524 18.2487 12.5631 17.6727 12.7884C17.0966 13.0138 16.6269 13.438 16.3537 13.9793L16.077 14.5286C14.8515 13.8672 13.7254 13.0456 12.7303 12.0869C11.7423 11.1212 10.8956 10.0285 10.2139 8.83943L10.7424 8.49759C11.3002 8.23256 11.7373 7.77671 11.9696 7.21775C12.2018 6.65879 12.2129 6.03622 12.0005 5.46985C11.8008 4.94784 11.6368 4.41356 11.5098 3.87052C11.4469 3.60193 11.3966 3.32113 11.3589 3.04034C11.2061 2.18038 10.7419 1.40162 10.0499 0.844296C9.35791 0.286969 8.48359 -0.0122988 7.58439 0.000387383H3.80991C3.26769 -0.00455288 2.73073 0.103933 2.23559 0.318459C1.74046 0.532986 1.29877 0.848516 0.940596 1.24357C0.582424 1.63862 0.316177 2.10393 0.159981 2.6078C0.00378541 3.11168 -0.0386927 3.64229 0.0354388 4.16353C0.705707 9.27819 3.11293 14.0304 6.87686 17.6695C10.6408 21.3086 15.5469 23.6271 20.8202 24.2589H21.2983C22.2261 24.2602 23.1219 23.9299 23.8146 23.3311C24.2127 22.9856 24.5306 22.5621 24.7475 22.0886C24.9644 21.6151 25.0753 21.1023 25.0728 20.5841V16.9215C25.0574 16.0735 24.7391 15.257 24.1724 14.6113C23.6056 13.9656 22.8255 13.5307 21.9651 13.381ZM22.5942 20.7062C22.594 20.8796 22.5557 21.0509 22.482 21.2087C22.4082 21.3666 22.3006 21.5075 22.1664 21.6219C22.0259 21.7396 21.8615 21.8276 21.6838 21.8802C21.5061 21.9327 21.3191 21.9487 21.1347 21.9271C16.4228 21.3408 12.0461 19.2491 8.69498 15.9818C5.34385 12.7146 3.20903 8.45771 2.62724 3.88273C2.60722 3.7039 2.62477 3.52298 2.67883 3.35091C2.73289 3.17884 2.82235 3.0192 2.94178 2.88162C3.05969 2.75139 3.20482 2.64702 3.36752 2.57545C3.53022 2.50388 3.70676 2.46675 3.8854 2.46653H7.65987C7.95245 2.46021 8.23815 2.55306 8.46779 2.7291C8.69743 2.90514 8.85665 3.15335 8.91803 3.43101C8.96836 3.76471 9.03127 4.09435 9.10676 4.41991C9.2521 5.06348 9.44553 5.69593 9.68551 6.31225L7.92409 7.10581C7.77348 7.17286 7.63801 7.26812 7.52545 7.38611C7.41289 7.50411 7.32546 7.64252 7.26817 7.79339C7.21089 7.94426 7.18488 8.10463 7.19165 8.26529C7.19841 8.42594 7.23781 8.58372 7.30759 8.72955C9.11833 12.4932 12.2361 15.5185 16.1147 17.2756C16.421 17.3977 16.7646 17.3977 17.0709 17.2756C17.2278 17.2211 17.372 17.137 17.4951 17.028C17.6182 16.919 17.7178 16.7874 17.788 16.6407L18.5681 14.9315C19.2185 15.1572 19.8824 15.3448 20.556 15.4931C20.8915 15.5664 21.2312 15.6274 21.5751 15.6763C21.8612 15.7358 22.117 15.8903 22.2985 16.1132C22.4799 16.336 22.5756 16.6132 22.569 16.8971L22.5942 20.7062Z" fill="#FFFFF5"/>
</svg>
