<svg width="25" height="25" viewBox="0 0 25 25" fill="none" xmlns="http://www.w3.org/2000/svg">
<path d="M18.2272 14.5675C17.9775 14.4463 16.3546 13.7195 16.1049 13.5983C15.8552 13.4772 15.6055 13.4772 15.3558 13.7195C15.1061 13.9618 14.6067 14.6886 14.3571 14.9309C14.2322 15.1732 13.9825 15.1732 13.7328 15.052C12.8589 14.6886 11.985 14.204 11.236 13.5983C10.6117 12.9926 9.98752 12.2657 9.48814 11.5389C9.3633 11.2966 9.48814 11.0543 9.61298 10.9332C9.73783 10.812 9.86267 10.5697 10.1124 10.4486C10.2372 10.3275 10.362 10.0852 10.362 9.96403C10.4869 9.84289 10.4869 9.6006 10.362 9.47946C10.2372 9.35831 9.61298 7.90459 9.3633 7.29888C9.23845 6.45088 8.98876 6.45088 8.73908 6.45088H8.11486C7.86517 6.45088 7.49064 6.69316 7.36579 6.81431C6.61673 7.54116 6.2422 8.38917 6.2422 9.35831C6.36704 10.4486 6.74157 11.5389 7.49064 12.508C8.86392 14.4463 10.6117 16.0212 12.7341 16.9903C13.3583 17.2326 13.8577 17.4749 14.4819 17.5961C15.1061 17.8383 15.7303 17.8383 16.4794 17.7172C17.3533 17.5961 18.1024 16.9903 18.6017 16.2635C18.8514 15.7789 18.8514 15.2943 18.7266 14.8098L18.2272 14.5675ZM21.3483 3.54344C16.4794 -1.18115 8.61423 -1.18115 3.74532 3.54344C-0.249688 7.42002 -0.998751 13.356 1.74782 18.0806L0 24.2589L6.61673 22.5629C8.48939 23.5321 10.4869 24.0166 12.4844 24.0166C19.3508 24.0166 24.8439 18.6863 24.8439 12.0235C24.9688 8.87374 23.5955 5.84516 21.3483 3.54344ZM17.9775 20.5035C16.3546 21.4726 14.4819 22.0784 12.4844 22.0784C10.6117 22.0784 8.86392 21.5938 7.24095 20.7458L6.86642 20.5035L2.99625 21.4726L3.99501 17.8383L3.74532 17.4749C0.749064 12.6292 2.24719 6.57202 7.1161 3.54344C11.985 0.514859 18.2272 2.08972 21.2235 6.69316C24.2197 11.4177 22.8464 17.5961 17.9775 20.5035Z" fill="#FFFFF5"/>
</svg>
