<svg width="35" height="24" viewBox="0 0 35 24" fill="none" xmlns="http://www.w3.org/2000/svg">
<path d="M34.9919 8.41073C35.0706 6.20248 34.5729 4.01076 33.5451 2.03906C32.8478 1.23003 31.88 0.684057 30.8105 0.496285C26.3866 0.106773 21.9444 -0.0528749 17.503 0.0180247C13.0777 -0.0560929 8.65151 0.0984036 4.24317 0.480858C3.37161 0.634698 2.56505 1.03139 1.9219 1.62251C0.490988 2.90302 0.331998 5.09376 0.173007 6.94509C-0.057669 10.2737 -0.057669 13.6136 0.173007 16.9423C0.219003 17.9843 0.37889 19.0186 0.649979 20.0278C0.841682 20.807 1.22954 21.5279 1.77881 22.126C2.42633 22.7485 3.25168 23.1677 4.14777 23.3294C7.57547 23.7399 11.0292 23.9101 14.4822 23.8385C20.0468 23.9156 24.9278 23.8385 30.6992 23.4065C31.6173 23.2548 32.4659 22.835 33.1318 22.2031C33.5769 21.771 33.9093 21.2421 34.1016 20.6604C34.6702 18.9674 34.9495 17.1955 34.9283 15.4149C34.9919 14.551 34.9919 9.33639 34.9919 8.41073ZM13.9098 16.3406V6.79081L23.322 11.5888C20.6828 13.0082 17.2009 14.6127 13.9098 16.3406Z" fill="#FFFFF5"/>
</svg>
